<svg width="18" height="22" viewBox="0 0 18 22" fill="none" xmlns="http://www.w3.org/2000/svg">
<path fill-rule="evenodd" clip-rule="evenodd" d="M11.25 21C11.25 21.4142 10.9142 21.75 10.5 21.75H7.5C7.08579 21.75 6.75 21.4142 6.75 21C6.75 20.5858 7.08579 20.25 7.5 20.25H10.5C10.9142 20.25 11.25 20.5858 11.25 21V21ZM9 10.5C9.62132 10.5 10.125 9.99632 10.125 9.375C10.125 8.75368 9.62132 8.25 9 8.25C8.37868 8.25 7.875 8.75368 7.875 9.375C7.875 9.99632 8.37868 10.5 9 10.5V10.5ZM17.9644 14.6091L16.8056 19.8244C16.6939 20.3278 16.3314 20.7385 15.8457 20.912C15.3601 21.0854 14.8194 20.9972 14.4141 20.6784L11.8603 18.75H6.14156L3.58594 20.6784C3.18058 20.9972 2.6399 21.0854 2.15426 20.912C1.66863 20.7385 1.30612 20.3278 1.19438 19.8244L0.035625 14.6091C-0.0639714 14.1556 0.0508374 13.6815 0.346875 13.3237L3.02437 10.1119C3.11424 8.93151 3.38523 7.772 3.82781 6.67406C5.03719 3.64219 7.20281 1.74 8.08125 1.06313C8.62207 0.644066 9.37793 0.644066 9.91875 1.06313C10.7944 1.74 12.9628 3.64219 14.1722 6.67406C14.6148 7.772 14.8858 8.93151 14.9756 10.1119L17.6531 13.3237C17.9492 13.6815 18.064 14.1556 17.9644 14.6091V14.6091ZM6.32156 17.25H11.6784C13.6584 13.7306 14.0287 10.3612 12.7791 7.23C11.6766 4.46625 9.60844 2.71875 9 2.25C8.38969 2.71875 6.32156 4.46625 5.21906 7.23C3.97125 10.3612 4.34156 13.7306 6.32156 17.25V17.25ZM4.91531 17.7984C3.90594 15.9641 3.29344 14.1613 3.07781 12.39L1.5 14.2837L2.65875 19.5L2.67562 19.4878L4.91531 17.7984ZM16.5 14.2837L14.9222 12.39C14.7084 14.1575 14.0972 15.9603 13.0884 17.7984L15.3244 19.4859L15.3412 19.4981L16.5 14.2837Z" fill="#141712"/>
</svg>
