<svg width="21" height="22" viewBox="0 0 21 22" fill="none" xmlns="http://www.w3.org/2000/svg">
<path fill-rule="evenodd" clip-rule="evenodd" d="M20.0781 20.3259C17.9631 19.2947 16.75 17.0841 16.75 14.2509V12.6309C16.7516 12.0159 16.3762 11.4626 15.8041 11.2369L13.4688 10.3125C13.0863 10.1595 12.8988 9.72676 13.0487 9.34313L15.0475 4.37437C15.3216 3.71543 15.3156 2.97328 15.0308 2.31887C14.746 1.66447 14.2071 1.15421 13.5381 0.905625C12.1973 0.414329 10.7089 1.07915 10.18 2.40563C10.1796 2.40937 10.1796 2.41313 10.18 2.41687L8.20938 7.40625C8.05677 7.79058 7.62188 7.97888 7.23719 7.82719L4.85406 6.85687C4.29201 6.62912 3.64799 6.76482 3.22563 7.2C1.25125 9.22969 0.25 11.6016 0.25 14.25C0.244811 16.9602 1.29294 19.5664 3.17312 21.5184C3.31549 21.6673 3.5128 21.751 3.71875 21.75H19.75C20.0991 21.7497 20.4018 21.5086 20.4801 21.1684C20.5585 20.8282 20.3918 20.479 20.0781 20.3259V20.3259ZM4.29437 8.25L6.67656 9.21562C7.23193 9.43781 7.85291 9.4297 8.40229 9.1931C8.95167 8.95649 9.38423 8.51087 9.60437 7.95469L11.5731 2.98594C11.8131 2.41313 12.4609 2.11688 13.0197 2.32969C13.3075 2.43649 13.5392 2.6563 13.661 2.93814C13.7828 3.21998 13.7842 3.53935 13.6647 3.82219L11.6584 8.79C11.2011 9.94383 11.7644 11.2501 12.9175 11.7094L15.25 12.6309V14.25C15.25 14.2809 15.25 14.3119 15.25 14.3438L3.22844 9.53531C3.54804 9.07847 3.90454 8.6486 4.29437 8.25V8.25ZM8.79438 20.25C7.67774 19.1789 6.88669 17.8139 6.5125 16.3125C6.404 15.9174 5.99848 15.6825 5.60175 15.7849C5.20503 15.8874 4.96395 16.2893 5.06031 16.6875C5.38743 17.9791 5.97297 19.191 6.78156 20.25H4.04125C2.56205 18.602 1.74578 16.4645 1.75 14.25C1.74083 13.0767 1.98816 11.9155 2.47469 10.8478L15.3934 16.0153C15.6747 17.7028 16.3834 19.1541 17.4456 20.2491L8.79438 20.25Z" fill="#141712"/>
</svg>
