<svg width="20" height="18" viewBox="0 0 20 18" fill="none" xmlns="http://www.w3.org/2000/svg">
<path fill-rule="evenodd" clip-rule="evenodd" d="M19 15.75H18.25V0.75C18.25 0.335786 17.9142 0 17.5 0H12.25C11.8358 0 11.5 0.335786 11.5 0.75V4.5H7C6.58579 4.5 6.25 4.83579 6.25 5.25V9H2.5C2.08579 9 1.75 9.33579 1.75 9.75V15.75H1C0.585786 15.75 0.25 16.0858 0.25 16.5C0.25 16.9142 0.585786 17.25 1 17.25H19C19.4142 17.25 19.75 16.9142 19.75 16.5C19.75 16.0858 19.4142 15.75 19 15.75V15.75ZM13 1.5H16.75V15.75H13V1.5ZM7.75 6H11.5V15.75H7.75V6ZM3.25 10.5H6.25V15.75H3.25V10.5Z" fill="#141712"/>
</svg>
