<svg width="14" height="15" viewBox="0 0 14 15" fill="none" xmlns="http://www.w3.org/2000/svg">
<path fill-rule="evenodd" clip-rule="evenodd" d="M7 2.7294L10.1374 3.858L7 5.06903L3.86257 3.858L7 2.7294V2.7294ZM2 5.2829L6 6.82683V12.5421L2 10.9982V5.2829V5.2829ZM8 12.5421V6.82683L12 5.2829V10.9982L8 12.5421V12.5421ZM7.45133 0.766283C7.1596 0.66134 6.8404 0.66134 6.54867 0.766283L0.661513 2.88403C0.264633 3.02679 0 3.40323 0 3.825V11.4554C0 12.0065 0.339063 12.5009 0.853207 12.6993L6.6399 14.9329C6.87163 15.0224 7.12837 15.0224 7.3601 14.9329L13.1468 12.6993C13.6609 12.5009 14 12.0065 14 11.4554V3.825C14 3.40323 13.7354 3.02679 13.3385 2.88403L7.45133 0.766283V0.766283Z" fill="#141712"/>
</svg>
