<svg width="20" height="18" viewBox="0 0 20 18" fill="none" xmlns="http://www.w3.org/2000/svg">
<path fill-rule="evenodd" clip-rule="evenodd" d="M17.5 2.25H14.9013L13.6234 0.33375C13.4844 0.125363 13.2505 0.000150423 13 0H7C6.74949 0.000150423 6.51559 0.125363 6.37656 0.33375L5.09781 2.25H2.5C1.25736 2.25 0.25 3.25736 0.25 4.5V15C0.25 16.2426 1.25736 17.25 2.5 17.25H17.5C18.7426 17.25 19.75 16.2426 19.75 15V4.5C19.75 3.25736 18.7426 2.25 17.5 2.25V2.25ZM18.25 15C18.25 15.4142 17.9142 15.75 17.5 15.75H2.5C2.08579 15.75 1.75 15.4142 1.75 15V4.5C1.75 4.08579 2.08579 3.75 2.5 3.75H5.5C5.75084 3.75016 5.98516 3.62491 6.12438 3.41625L7.40125 1.5H12.5978L13.8756 3.41625C14.0148 3.62491 14.2492 3.75016 14.5 3.75H17.5C17.9142 3.75 18.25 4.08579 18.25 4.5V15ZM10 5.25C7.72183 5.25 5.875 7.09683 5.875 9.375C5.875 11.6532 7.72183 13.5 10 13.5C12.2782 13.5 14.125 11.6532 14.125 9.375C14.1224 7.0979 12.2771 5.25258 10 5.25V5.25ZM10 12C8.55025 12 7.375 10.8247 7.375 9.375C7.375 7.92525 8.55025 6.75 10 6.75C11.4497 6.75 12.625 7.92525 12.625 9.375C12.625 10.8247 11.4497 12 10 12V12Z" fill="#141712"/>
</svg>
