<svg width="20" height="19" viewBox="0 0 20 19" fill="none" xmlns="http://www.w3.org/2000/svg">
<path fill-rule="evenodd" clip-rule="evenodd" d="M19 7.75H18.2153C17.8248 3.5044 14.2635 0.255738 10 0.255738C5.73647 0.255738 2.17525 3.5044 1.78469 7.75H1C0.585786 7.75 0.25 8.08579 0.25 8.5C0.256716 12.1352 2.27856 15.4669 5.5 17.1513V17.5C5.5 18.3284 6.17157 19 7 19H13C13.8284 19 14.5 18.3284 14.5 17.5V17.1513C17.7214 15.4669 19.7433 12.1352 19.75 8.5C19.75 8.08579 19.4142 7.75 19 7.75V7.75ZM16.7069 7.75H11.8862C12.7955 6.38583 14.1712 5.40017 15.7553 4.97781C16.2733 5.8203 16.5982 6.76702 16.7069 7.75V7.75ZM14.2638 3.27156C14.4356 3.41219 14.6003 3.56063 14.7578 3.71688C12.7613 4.4192 11.1114 5.86263 10.15 7.74813H7.38437C8.3448 5.05596 10.8917 3.25628 13.75 3.25C13.9216 3.25 14.0931 3.25844 14.2638 3.27156V3.27156ZM10 1.75C10.6018 1.7504 11.2009 1.83143 11.7812 1.99094C8.90456 2.70454 6.62832 4.9007 5.81219 7.75H3.29313C3.67828 4.33577 6.56412 1.75409 10 1.75V1.75ZM13.4369 16C13.1697 16.1228 12.9989 16.3903 13 16.6844V17.5H7V16.6844C7.00112 16.3903 6.83032 16.1228 6.56312 16C3.87876 14.7647 2.0565 12.1921 1.78187 9.25H18.2153C17.9412 12.1915 16.1201 14.764 13.4369 16V16Z" fill="#141712"/>
</svg>
