<svg width="20" height="19" viewBox="0 0 20 19" fill="none" xmlns="http://www.w3.org/2000/svg">
<path fill-rule="evenodd" clip-rule="evenodd" d="M19.4163 6.37562L10.4163 0.375625C10.1642 0.207475 9.83578 0.207475 9.58375 0.375625L0.58375 6.37562C0.375087 6.51484 0.249837 6.74916 0.25 7V16.75C0.25 17.5784 0.921573 18.25 1.75 18.25H18.25C19.0784 18.25 19.75 17.5784 19.75 16.75V7C19.7502 6.74916 19.6249 6.51484 19.4163 6.37562V6.37562ZM7.0675 12.25L1.75 16V8.45594L7.0675 12.25ZM8.60219 13H11.3978L16.7069 16.75H3.29313L8.60219 13ZM12.9325 12.25L18.25 8.45594V16L12.9325 12.25ZM10 1.90094L17.6791 7.02063L11.3978 11.5H8.60406L2.32281 7.02063L10 1.90094Z" fill="#141712"/>
</svg>
